<svg xmlns="http://www.w3.org/2000/svg" viewBox="0 0 468 441" role="img" aria-label="Vonk icon">
  <defs>
    <linearGradient id="vonkGradient" x1="0%" y1="0%" x2="100%" y2="100%">
      <stop offset="0%" stop-color="#FDB52A"/>
      <stop offset="55%" stop-color="#FF6C2F"/>
      <stop offset="100%" stop-color="#D4148E"/>
    </linearGradient>
  </defs>
  <path d="M 315.0,8.0 L 299.0,41.0 L 290.0,53.0 L 279.0,62.0 L 272.0,64.0 L 217.0,62.0 L 154.0,63.0 L 131.0,65.0 L 98.0,71.0 L 74.0,79.0 L 53.0,90.0 L 36.0,104.0 L 23.0,120.0 L 16.0,132.0 L 6.0,158.0 L 0.0,193.0 L 0.0,235.0 L 5.0,268.0 L 15.0,300.0 L 32.0,331.0 L 49.0,349.0 L 66.0,359.0 L 73.0,361.0 L 85.0,359.0 L 92.0,352.0 L 94.0,347.0 L 111.0,323.0 L 136.0,295.0 L 169.0,264.0 L 197.0,242.0 L 243.0,213.0 L 247.0,216.0 L 254.0,226.0 L 226.0,250.0 L 197.0,281.0 L 167.0,321.0 L 153.0,343.0 L 126.0,394.0 L 116.0,418.0 L 118.0,428.0 L 124.0,432.0 L 136.0,430.0 L 155.0,413.0 L 172.0,401.0 L 184.0,395.0 L 202.0,389.0 L 218.0,386.0 L 299.0,386.0 L 331.0,384.0 L 364.0,379.0 L 389.0,372.0 L 411.0,362.0 L 426.0,352.0 L 444.0,333.0 L 453.0,317.0 L 460.0,299.0 L 465.0,276.0 L 467.0,260.0 L 467.0,222.0 L 461.0,178.0 L 448.0,138.0 L 438.0,119.0 L 422.0,99.0 L 422.0,110.0 L 419.0,117.0 L 414.0,124.0 L 401.0,136.0 L 368.0,155.0 L 354.0,147.0 L 348.0,141.0 L 362.0,132.0 L 373.0,121.0 L 380.0,110.0 L 381.0,103.0 L 370.0,93.0 L 368.0,89.0 L 368.0,82.0 L 374.0,74.0 L 382.0,70.0 L 357.0,65.0 L 339.0,65.0 L 328.0,55.0 L 323.0,45.0 L 317.0,22.0 Z M 368.0,238.0 L 373.0,252.0 L 379.0,257.0 L 390.0,261.0 L 378.0,265.0 L 372.0,271.0 L 368.0,284.0 L 363.0,270.0 L 358.0,265.0 L 346.0,261.0 L 359.0,256.0 L 363.0,252.0 Z M 129.0,221.0 L 133.0,227.0 L 138.0,229.0 L 133.0,231.0 L 129.0,237.0 L 126.0,232.0 L 122.0,229.0 Z M 112.0,136.0 L 119.0,150.0 L 133.0,156.0 L 122.0,160.0 L 116.0,166.0 L 113.0,175.0 L 111.0,176.0 L 105.0,163.0 L 97.0,158.0 L 89.0,156.0 L 95.0,155.0 L 103.0,151.0 L 108.0,145.0 L 110.0,138.0 Z M 166.0,105.0 L 168.0,111.0 L 176.0,116.0 L 171.0,118.0 L 166.0,125.0 L 164.0,121.0 L 157.0,116.0 L 164.0,111.0 Z M 313.0,19.0 L 315.0,27.0 L 316.0,69.0 L 320.0,105.0 L 323.0,122.0 L 330.0,140.0 L 339.0,150.0 L 352.0,157.0 L 386.0,170.0 L 412.0,178.0 L 373.0,187.0 L 340.0,197.0 L 327.0,203.0 L 319.0,210.0 L 312.0,221.0 L 303.0,242.0 L 279.0,312.0 L 269.0,235.0 L 264.0,217.0 L 257.0,205.0 L 248.0,196.0 L 230.0,187.0 L 189.0,172.0 L 161.0,164.0 L 164.0,162.0 L 184.0,160.0 L 227.0,151.0 L 241.0,147.0 L 257.0,139.0 L 268.0,127.0 L 283.0,98.0 L 298.0,62.0 Z" fill="url(#vonkGradient)" fill-rule="evenodd"/>
</svg>